<svg width="21" height="19" viewBox="0 0 21 19" fill="none" xmlns="http://www.w3.org/2000/svg">
<g id="heart-white-icon" filter="url(#filter0_d_74_115)">
<path id="&#60;Compound Path&#62;" d="M10.4229 15C10.1756 14.9965 9.93968 14.8953 9.76657 14.7187L3.37196 8.324C2.93521 7.88907 2.58929 7.37178 2.35428 6.80197C2.11927 6.23215 1.99991 5.62137 2.00307 5.00501C1.96214 3.85167 2.33166 2.72116 3.04588 1.81466C3.76009 0.908153 4.77267 0.284407 5.90356 0.0543212C6.56743 -0.0471915 7.24529 -0.00612184 7.89201 0.174958C8.53872 0.356038 9.13943 0.672849 9.65406 1.10434C9.91864 1.32721 10.1577 1.57883 10.3667 1.85449C10.5757 1.57883 10.8147 1.32721 11.0793 1.10434C11.5945 0.673893 12.1952 0.357817 12.8418 0.176789C13.4883 -0.00423855 14.1659 -0.0459762 14.8298 0.0543212C15.9413 0.273773 16.9407 0.876245 17.6535 1.75697C18.3663 2.6377 18.7473 3.7407 18.7303 4.87361C18.7432 5.5081 18.6287 6.1388 18.3936 6.72826C18.1584 7.31771 17.8075 7.85408 17.3614 8.30546L10.9668 14.6999C10.8248 14.8588 10.633 14.9647 10.4229 15Z" fill="white"/>
</g>
<defs>
<filter id="filter0_d_74_115" x="0" y="0" width="20.7313" height="19" filterUnits="userSpaceOnUse" color-interpolation-filters="sRGB">
<feFlood flood-opacity="0" result="BackgroundImageFix"/>
<feColorMatrix in="SourceAlpha" type="matrix" values="0 0 0 0 0 0 0 0 0 0 0 0 0 0 0 0 0 0 127 0" result="hardAlpha"/>
<feOffset dy="2"/>
<feGaussianBlur stdDeviation="1"/>
<feColorMatrix type="matrix" values="0 0 0 0 0 0 0 0 0 0 0 0 0 0 0 0 0 0 0.25 0"/>
<feBlend mode="normal" in2="BackgroundImageFix" result="effect1_dropShadow_74_115"/>
<feBlend mode="normal" in="SourceGraphic" in2="effect1_dropShadow_74_115" result="shape"/>
</filter>
</defs>
</svg>
